# Blender v2.79 (sub 0) OBJ File: ''
# www.blender.org
mtllib computer.mtl
o Computer
v -10.000000 -9.000000 0.000000
v -10.000000 9.000000 -12.000000
v -10.000000 -9.000000 -12.000000
v -10.000000 9.000000 0.000000
v 10.000000 9.000000 0.000000
v 10.000000 9.000000 -12.000000
v 10.000000 -9.000000 -12.000000
v 10.000000 -9.000000 0.000000
v 12.000000 -9.000000 -13.400000
v 12.000000 -9.000000 1.000000
v -12.000000 -9.000000 1.000000
v -12.000000 -9.000000 -13.400000
v -9.000000 8.000000 0.000000
v -9.000000 -8.000000 0.000000
v 9.000000 -8.000000 0.000000
v 9.000000 8.000000 0.000000
v -12.000000 -18.000000 1.000000
v -12.000000 -18.000000 -13.400000
v 12.000000 -18.000000 -13.400000
v 12.000000 -18.000000 1.000000
v -9.000000 -8.000000 -1.000000
v -9.000000 8.000000 -1.000000
v 9.000000 8.000000 -1.000000
v 9.000000 -8.000000 -1.000000
vt 0.458599 0.933334
vt 0.649681 0.633333
vt 0.649682 0.933333
vt 0.458599 0.633334
vt 0.573248 0.000000
vt 0.764331 0.333333
vt 0.573248 0.333333
vt 0.764331 0.000000
vt 0.764331 0.300000
vt 0.955414 0.000000
vt 0.955414 0.300000
vt 0.764331 0.000000
vt 0.573248 0.000000
vt 0.286624 0.333333
vt 0.286624 0.000000
vt 0.573248 0.333333
vt 0.458599 0.333333
vt 0.436306 0.366667
vt 0.229299 0.333333
vt 0.436306 0.700000
vt 0.229299 0.733333
vt 0.458599 0.733333
vt 0.245223 0.366667
vt 0.245223 0.700000
vt 0.286624 0.333333
vt 0.270701 0.316667
vt 0.286624 0.000000
vt 0.015924 0.316667
vt 0.000000 0.333333
vt 0.015924 0.016667
vt 0.270701 0.016667
vt 0.000000 0.000000
vt 0.143312 0.973333
vt 0.000000 0.733333
vt 0.143312 0.733333
vt 0.000000 0.973333
vt 0.286624 0.973333
vt 0.143312 0.733333
vt 0.286624 0.733333
vt 0.143312 0.973333
vt 1.000000 0.333333
vt 0.856688 0.733333
vt 0.856688 0.333333
vt 1.000000 0.733333
vt 0.229299 0.733333
vt 0.000000 0.333333
vt 0.229299 0.333333
vt 0.000000 0.733333
vt 0.713376 0.733333
vt 0.856688 0.333333
vt 0.856688 0.733333
vt 0.713376 0.333333
vt 0.302548 0.733333
vt 0.286624 1.000000
vt 0.286624 0.733333
vt 0.302548 1.000000
vt 0.665605 0.933333
vt 0.649682 0.633333
vt 0.665605 0.633333
vt 0.649682 0.933333
vt 0.681529 0.900000
vt 0.697452 0.633333
vt 0.697452 0.900000
vt 0.681529 0.633333
vt 0.681529 0.933333
vt 0.665605 0.633333
vt 0.681529 0.633333
vt 0.665605 0.933333
vt 0.458599 0.633333
vt 0.713376 0.333333
vt 0.713376 0.633333
vt 0.458599 0.333333
vn -1.0000 0.0000 0.0000
vn 0.0000 1.0000 0.0000
vn 1.0000 0.0000 0.0000
vn 0.0000 0.0000 -1.0000
vn 0.0000 0.0000 1.0000
vn 0.0000 -1.0000 0.0000
usemtl None
s off
f 1/1/1 2/2/1 3/3/1
f 2/2/1 1/1/1 4/4/1
f 2/5/2 5/6/2 6/7/2
f 5/6/2 2/5/2 4/8/2
f 5/9/3 7/10/3 6/11/3
f 7/10/3 5/9/3 8/12/3
f 7/13/4 2/14/4 6/15/4
f 2/14/4 7/13/4 3/16/4
f 9/17/2 7/18/2 10/19/2
f 9/17/2 3/20/2 7/18/2
f 11/21/2 3/20/2 12/22/2
f 12/22/2 3/20/2 9/17/2
f 8/23/2 10/19/2 7/18/2
f 1/24/2 10/19/2 8/23/2
f 1/24/2 11/21/2 10/19/2
f 3/20/2 11/21/2 1/24/2
f 4/25/5 13/26/5 5/27/5
f 4/25/5 14/28/5 13/26/5
f 14/28/5 1/29/5 15/30/5
f 1/29/5 14/28/5 4/25/5
f 16/31/5 5/27/5 13/26/5
f 15/30/5 5/27/5 16/31/5
f 15/30/5 8/32/5 5/27/5
f 8/32/5 15/30/5 1/29/5
f 17/33/1 12/34/1 18/35/1
f 12/34/1 17/33/1 11/36/1
f 10/37/3 19/38/3 9/39/3
f 19/38/3 10/37/3 20/40/3
f 19/41/4 12/42/4 9/43/4
f 12/42/4 19/41/4 18/44/4
f 17/45/6 19/46/6 20/47/6
f 19/46/6 17/45/6 18/48/6
f 17/49/5 10/50/5 11/51/5
f 10/50/5 17/49/5 20/52/5
f 13/53/3 21/54/3 22/55/3
f 21/54/3 13/53/3 14/56/3
f 13/57/6 23/58/6 16/59/6
f 23/58/6 13/57/6 22/60/6
f 15/61/1 23/62/1 24/63/1
f 23/62/1 15/61/1 16/64/1
f 21/65/2 15/66/2 24/67/2
f 15/66/2 21/65/2 14/68/2
f 21/69/5 23/70/5 22/71/5
f 23/70/5 21/69/5 24/72/5
