solid OpenSCAD_Model
  facet normal -1 0 0
    outer loop
      vertex -10 0 -9
      vertex -10 12 9
      vertex -10 12 -9
    endloop
  endfacet
  facet normal -1 -0 0
    outer loop
      vertex -10 12 9
      vertex -10 0 -9
      vertex -10 0 9
    endloop
  endfacet
  facet normal -0 0 1
    outer loop
      vertex -10 12 9
      vertex 10 0 9
      vertex 10 12 9
    endloop
  endfacet
  facet normal 0 0 1
    outer loop
      vertex 10 0 9
      vertex -10 12 9
      vertex -10 0 9
    endloop
  endfacet
  facet normal 1 -0 0
    outer loop
      vertex 10 0 9
      vertex 10 12 -9
      vertex 10 12 9
    endloop
  endfacet
  facet normal 1 0 0
    outer loop
      vertex 10 12 -9
      vertex 10 0 9
      vertex 10 0 -9
    endloop
  endfacet
  facet normal 0 1 -0
    outer loop
      vertex 10 12 -9
      vertex -10 12 9
      vertex 10 12 9
    endloop
  endfacet
  facet normal 0 1 0
    outer loop
      vertex -10 12 9
      vertex 10 12 -9
      vertex -10 12 -9
    endloop
  endfacet
  facet normal 0 0 1
    outer loop
      vertex 12 13.4 -9
      vertex 10 12 -9
      vertex 12 -1 -9
    endloop
  endfacet
  facet normal 0 0 1
    outer loop
      vertex 12 13.4 -9
      vertex -10 12 -9
      vertex 10 12 -9
    endloop
  endfacet
  facet normal 0 0 1
    outer loop
      vertex -12 -1 -9
      vertex -10 12 -9
      vertex -12 13.4 -9
    endloop
  endfacet
  facet normal -0 0 1
    outer loop
      vertex -12 13.4 -9
      vertex -10 12 -9
      vertex 12 13.4 -9
    endloop
  endfacet
  facet normal -0 0 1
    outer loop
      vertex 10 0 -9
      vertex 12 -1 -9
      vertex 10 12 -9
    endloop
  endfacet
  facet normal -0 0 1
    outer loop
      vertex -10 0 -9
      vertex 12 -1 -9
      vertex 10 0 -9
    endloop
  endfacet
  facet normal 0 0 1
    outer loop
      vertex -10 0 -9
      vertex -12 -1 -9
      vertex 12 -1 -9
    endloop
  endfacet
  facet normal 0 0 1
    outer loop
      vertex -10 12 -9
      vertex -12 -1 -9
      vertex -10 0 -9
    endloop
  endfacet
  facet normal 0 -1 0
    outer loop
      vertex -10 0 9
      vertex -9 0 8
      vertex 10 0 9
    endloop
  endfacet
  facet normal 0 -1 0
    outer loop
      vertex -10 0 9
      vertex -9 0 -8
      vertex -9 0 8
    endloop
  endfacet
  facet normal 0 -1 -0
    outer loop
      vertex -9 0 -8
      vertex -10 0 -9
      vertex 9 0 -8
    endloop
  endfacet
  facet normal 0 -1 0
    outer loop
      vertex -10 0 -9
      vertex -9 0 -8
      vertex -10 0 9
    endloop
  endfacet
  facet normal 0 -1 0
    outer loop
      vertex 9 0 8
      vertex 10 0 9
      vertex -9 0 8
    endloop
  endfacet
  facet normal 0 -1 0
    outer loop
      vertex 9 0 -8
      vertex 10 0 9
      vertex 9 0 8
    endloop
  endfacet
  facet normal 0 -1 0
    outer loop
      vertex 9 0 -8
      vertex 10 0 -9
      vertex 10 0 9
    endloop
  endfacet
  facet normal 0 -1 0
    outer loop
      vertex 10 0 -9
      vertex 9 0 -8
      vertex -10 0 -9
    endloop
  endfacet
  facet normal -1 0 0
    outer loop
      vertex -12 -1 -18
      vertex -12 13.4 -9
      vertex -12 13.4 -18
    endloop
  endfacet
  facet normal -1 -0 0
    outer loop
      vertex -12 13.4 -9
      vertex -12 -1 -18
      vertex -12 -1 -9
    endloop
  endfacet
  facet normal 1 -0 0
    outer loop
      vertex 12 -1 -9
      vertex 12 13.4 -18
      vertex 12 13.4 -9
    endloop
  endfacet
  facet normal 1 0 0
    outer loop
      vertex 12 13.4 -18
      vertex 12 -1 -9
      vertex 12 -1 -18
    endloop
  endfacet
  facet normal 0 1 -0
    outer loop
      vertex 12 13.4 -18
      vertex -12 13.4 -9
      vertex 12 13.4 -9
    endloop
  endfacet
  facet normal 0 1 0
    outer loop
      vertex -12 13.4 -9
      vertex 12 13.4 -18
      vertex -12 13.4 -18
    endloop
  endfacet
  facet normal 0 0 -1
    outer loop
      vertex -12 -1 -18
      vertex 12 13.4 -18
      vertex 12 -1 -18
    endloop
  endfacet
  facet normal -0 0 -1
    outer loop
      vertex 12 13.4 -18
      vertex -12 -1 -18
      vertex -12 13.4 -18
    endloop
  endfacet
  facet normal 0 -1 0
    outer loop
      vertex -12 -1 -18
      vertex 12 -1 -9
      vertex -12 -1 -9
    endloop
  endfacet
  facet normal 0 -1 -0
    outer loop
      vertex 12 -1 -9
      vertex -12 -1 -18
      vertex 12 -1 -18
    endloop
  endfacet
  facet normal 1 -0 0
    outer loop
      vertex -9 0 8
      vertex -9 1 -8
      vertex -9 1 8
    endloop
  endfacet
  facet normal 1 0 0
    outer loop
      vertex -9 1 -8
      vertex -9 0 8
      vertex -9 0 -8
    endloop
  endfacet
  facet normal 0 0 -1
    outer loop
      vertex -9 0 8
      vertex 9 1 8
      vertex 9 0 8
    endloop
  endfacet
  facet normal -0 0 -1
    outer loop
      vertex 9 1 8
      vertex -9 0 8
      vertex -9 1 8
    endloop
  endfacet
  facet normal -1 0 0
    outer loop
      vertex 9 0 -8
      vertex 9 1 8
      vertex 9 1 -8
    endloop
  endfacet
  facet normal -1 -0 0
    outer loop
      vertex 9 1 8
      vertex 9 0 -8
      vertex 9 0 8
    endloop
  endfacet
  facet normal -0 0 1
    outer loop
      vertex -9 1 -8
      vertex 9 0 -8
      vertex 9 1 -8
    endloop
  endfacet
  facet normal 0 0 1
    outer loop
      vertex 9 0 -8
      vertex -9 1 -8
      vertex -9 0 -8
    endloop
  endfacet
  facet normal 0 -1 0
    outer loop
      vertex -9 1 -8
      vertex 9 1 8
      vertex -9 1 8
    endloop
  endfacet
  facet normal 0 -1 -0
    outer loop
      vertex 9 1 8
      vertex -9 1 -8
      vertex 9 1 -8
    endloop
  endfacet
endsolid OpenSCAD_Model
